<svg id="Location" xmlns="http://www.w3.org/2000/svg" width="46" height="46" viewBox="0 0 46 46">
  <defs>
    <style>
      .cls-1 {
        fill: #fff;
      }

      .cls-2 {
        fill: #f4aa03;
      }
    </style>
  </defs>
  <path id="Caminho_77" data-name="Caminho 77" class="cls-1" d="M23,0A23,23,0,1,1,0,23,23,23,0,0,1,23,0Z"/>
  <path id="Icon_material-my-location" data-name="Icon material-my-location" class="cls-2" d="M20.8,13.781A7.018,7.018,0,1,0,27.816,20.8,7.016,7.016,0,0,0,20.8,13.781Zm15.685,5.263a15.78,15.78,0,0,0-13.93-13.93V1.5H19.044V5.114a15.78,15.78,0,0,0-13.93,13.93H1.5v3.509H5.114a15.78,15.78,0,0,0,13.93,13.93V40.1h3.509V36.483a15.78,15.78,0,0,0,13.93-13.93H40.1V19.044ZM20.8,33.08A12.281,12.281,0,1,1,33.08,20.8,12.272,12.272,0,0,1,20.8,33.08Z" transform="translate(2.233 2.233)"/>
</svg>
